<svg width="27" height="26" viewBox="0 0 27 26" fill="none" xmlns="http://www.w3.org/2000/svg">
<path d="M13.5 0.200012C16.8948 0.200012 20.1505 1.54858 22.551 3.94905C24.9514 6.34951 26.3 9.60524 26.3 13C26.3 16.3948 24.9514 19.6505 22.551 22.051C20.1505 24.4514 16.8948 25.8 13.5 25.8C10.1052 25.8 6.84951 24.4514 4.44905 22.051C2.04858 19.6505 0.700012 16.3948 0.700012 13C0.700012 9.60524 2.04858 6.34951 4.44905 3.94905C6.84951 1.54858 10.1052 0.200012 13.5 0.200012ZM13.5 1.80001C12.0292 1.80001 10.5728 2.08971 9.21396 2.65256C7.85511 3.21541 6.62043 4.0404 5.58042 5.08042C4.5404 6.12043 3.71541 7.35511 3.15256 8.71396C2.58971 10.0728 2.30001 11.5292 2.30001 13C2.30001 14.4708 2.58971 15.9272 3.15256 17.2861C3.71541 18.6449 4.5404 19.8796 5.58042 20.9196C6.62043 21.9596 7.85511 22.7846 9.21396 23.3475C10.5728 23.9103 12.0292 24.2 13.5 24.2C16.4704 24.2 19.3192 23.02 21.4196 20.9196C23.52 18.8192 24.7 15.9704 24.7 13C24.7 10.0296 23.52 7.18082 21.4196 5.08042C19.3192 2.98001 16.4704 1.80001 13.5 1.80001ZM13.5 17C13.8183 17 14.1235 17.1264 14.3485 17.3515C14.5736 17.5765 14.7 17.8818 14.7 18.2C14.7 18.5183 14.5736 18.8235 14.3485 19.0485C14.1235 19.2736 13.8183 19.4 13.5 19.4C13.1818 19.4 12.8765 19.2736 12.6515 19.0485C12.4264 18.8235 12.3 18.5183 12.3 18.2C12.3 17.8818 12.4264 17.5765 12.6515 17.3515C12.8765 17.1264 13.1818 17 13.5 17ZM13.5 6.60001C13.6873 6.59995 13.8686 6.66557 14.0124 6.78544C14.1563 6.9053 14.2535 7.07183 14.2872 7.25601L14.3 7.40001V14.6C14.3004 14.7999 14.2259 14.9927 14.0912 15.1405C13.9565 15.2882 13.7714 15.3802 13.5723 15.3982C13.3732 15.4163 13.1746 15.3591 13.0155 15.2381C12.8564 15.117 12.7484 14.9407 12.7128 14.744L12.7 14.6V7.40001C12.7 7.18784 12.7843 6.98436 12.9343 6.83433C13.0844 6.6843 13.2878 6.60001 13.5 6.60001Z" fill="#DE1010"/>
</svg>
