<svg width="19" height="12" viewBox="0 0 19 12" fill="none" xmlns="http://www.w3.org/2000/svg">
<path d="M11.8569 9.92857C12.0653 9.92857 12.2652 10.0114 12.4125 10.1587C12.5599 10.3061 12.6426 10.5059 12.6426 10.7143C12.6426 10.9227 12.5599 11.1225 12.4125 11.2699C12.2652 11.4172 12.0653 11.5 11.8569 11.5H7.14265C6.93426 11.5 6.73441 11.4172 6.58706 11.2699C6.43971 11.1225 6.35693 10.9227 6.35693 10.7143C6.35693 10.5059 6.43971 10.3061 6.58706 10.1587C6.73441 10.0114 6.93426 9.92857 7.14265 9.92857H11.8569ZM14.9998 5.21429C15.2082 5.21429 15.408 5.29707 15.5554 5.44442C15.7027 5.59177 15.7855 5.79162 15.7855 6C15.7855 6.20838 15.7027 6.40823 15.5554 6.55558C15.408 6.70293 15.2082 6.78571 14.9998 6.78571H3.99979C3.79141 6.78571 3.59156 6.70293 3.44421 6.55558C3.29686 6.40823 3.21408 6.20838 3.21408 6C3.21408 5.79162 3.29686 5.59177 3.44421 5.44442C3.59156 5.29707 3.79141 5.21429 3.99979 5.21429H14.9998ZM17.3569 0.5C17.5653 0.5 17.7652 0.582781 17.9125 0.730131C18.0599 0.877481 18.1426 1.07733 18.1426 1.28571C18.1426 1.4941 18.0599 1.69395 17.9125 1.8413C17.7652 1.98865 17.5653 2.07143 17.3569 2.07143H1.64265C1.43426 2.07143 1.23441 1.98865 1.08706 1.8413C0.939714 1.69395 0.856934 1.4941 0.856934 1.28571C0.856934 1.07733 0.939714 0.877481 1.08706 0.730131C1.23441 0.582781 1.43426 0.5 1.64265 0.5H17.3569Z" fill="#1C5073"/>
</svg>
