<svg width="24" height="24" viewBox="0 0 24 24" fill="none" xmlns="http://www.w3.org/2000/svg">
<path d="M2.57143 4.54545V16.9091C2.57143 17.319 2.73699 17.7121 3.03169 18.0019C3.32639 18.2917 3.72609 18.4545 4.14286 18.4545H19.8571C20.2739 18.4545 20.6736 18.2917 20.9683 18.0019C21.263 17.7121 21.4286 17.319 21.4286 16.9091V4.54545H2.57143ZM2.57143 3H21.4286C21.8453 3 22.245 3.16282 22.5397 3.45265C22.8344 3.74248 23 4.13557 23 4.54545V16.9091C23 17.7289 22.6689 18.515 22.0795 19.0947C21.4901 19.6744 20.6907 20 19.8571 20H4.14286C3.30932 20 2.50992 19.6744 1.92052 19.0947C1.33112 18.515 1 17.7289 1 16.9091V4.54545C1 4.13557 1.16556 3.74248 1.46026 3.45265C1.75496 3.16282 2.15466 3 2.57143 3Z" fill="#ffffff"/>
<path d="M21.1406 4.5625L15.0984 11.4688C14.6585 11.9717 14.1161 12.3748 13.5076 12.651C12.8991 12.9271 12.2385 13.07 11.5703 13.07C10.9021 13.07 10.2416 12.9271 9.63307 12.651C9.02457 12.3748 8.48215 11.9717 8.04219 11.4688L2 4.5625H21.1406ZM4.07656 4.5625L9.21719 10.4391C9.5105 10.7745 9.87214 11.0432 10.2779 11.2274C10.6836 11.4116 11.124 11.5069 11.5695 11.5069C12.0151 11.5069 12.4555 11.4116 12.8612 11.2274C13.2669 11.0432 13.6286 10.7745 13.9219 10.4391L19.0641 4.5625H4.07656Z" fill="#ffffff"/>
</svg>
