<svg height="32" viewBox="0 0 2048 2048" width="32"  xmlns="http://www.w3.org/2000/svg">
<path d="m1568 1088q95 0 182 36 87 36 153 101 66 64 106 152 39 88 39 191 0 95-36 182-36 87-100 153-64 66-152 106-88 39-192 39-100 0-187-38-88-38-153-103-65-66-102-153-38-88-38-186 0-100 39-188 38-88 104-152 65-65 152-102 87-38 185-38m0 896q83 0 159-32 75-32 132-88 57-56 91-132 34-76 34-164 0-89-34-165-35-77-93-132-58-56-133-87-75-32-156-32-88 0-164 34-76 34-132 91-56 57-88 133-32 75-32 158 0 81 32 157 31 75 87 133 55 57 131 92 76 34 166 34m32-448h192v64h-256v-320h64m-534 570q10 17 21 33 10 16 22 32-21 2-42 4-21 1-43 1-131 0-248-34-117-34-216-94-100-61-180-144-80-84-136-183-56-100-86-212-30-112-30-229 0-114 30-225 30-111 86-210 55-100 135-184 79-85 179-146 99-62 217-96 117-35 249-35 118 0 231 31 112 30 212 87 100 57 183 138 83 80 143 180 60 99 94 216 33 116 33 244 0 22-1 43-2 21-4 42-14-11-29-21-16-10-32-19 1-11 2-22 0-12 0-23 0-67-10-130-10-64-30-126h-363q10 57 14 114 4 57 4 119-16 3-32 6-16 3-31 8-2-68-6-128-5-61-13-119h-730q-9 60-14 123-5 63-5 133 0 69 5 132 5 63 14 124h411q-19 33-33 64h-367q21 111 58 205 37 94 84 163 47 68 102 106 54 38 110 38 11 0 21-2 10-2 21-4m336-1567q-89-46-186-69 78 75 137 201 58 126 90 289h349q-57-137-158-246-101-109-232-175m-484-55q-38 24-75 69-38 44-70 105-33 60-59 137-27 76-44 165h708q-23-123-62-218-40-96-88-161-48-65-101-99-53-34-103-34-54 0-106 36m-566 306q-59 81-96 170h349q31-162 91-288 59-127 136-202-147 34-269 118-123 84-211 202m243 746q-11-61-15-125-4-64-4-131 0-66 4-130 4-65 15-126h-363q-20 62-30 126-10 63-10 130 0 68 10 131 10 63 30 125m414 486q90 46 186 68-77-74-136-201-60-127-91-289h-349q57 140 158 247 101 106 232 175z"/><path d="m1600 1536h192v64h-256v-320h64z"/><path d="m1568 1088q95 0 182 36 87 36 153 101 66 64 106 152 39 88 39 191 0 95-36 182-36 87-100 153-64 66-152 106-88 39-192 39-100 0-187-38-88-38-153-103-65-66-102-153-38-88-38-186 0-100 39-188 38-88 104-152 65-65 152-102 87-38 185-38m0 896q83 0 159-32 75-32 132-88 57-56 91-132 34-76 34-164 0-89-34-165-35-77-93-132-58-56-133-87-75-32-156-32-88 0-164 34-76 34-132 91-56 57-88 133-32 75-32 158 0 81 32 157 31 75 87 133 55 57 131 92 76 34 166 34z"/>
</svg>